<?xml version="1.0" encoding="UTF-8"?>
<svg id="_ベクター_x5F_凸版文久見出し" data-name="ベクター_x5F_凸版文久見出し" xmlns="http://www.w3.org/2000/svg" viewBox="0 0 462.67 89.82">
  <defs>
    <style>
      .cls-1 {
        fill: #87ee0c;
      }

      .cls-2 {
        fill: none;
        stroke: #87ee0c;
        stroke-linecap: round;
        stroke-miterlimit: 10;
        stroke-width: 11.34px;
      }

      .cls-3 {
        fill: #ef5533;
      }
    </style>
  </defs>
  <g>
    <path class="cls-1" d="M138.21,72.84c0,3.06,1.1,4.51,3.32,4.51.76,0,1.02,0,1.19-.08v10.2c-2.72,1.02-4.85,1.36-7.74,1.36-5.53,0-8.38.41-9.57-3.25-2.89,4.33-7.09,4.1-13.3,4.1-10.03,0-16.15-5.35-16.15-14.45,0-10.03,8.08-15.39,20.91-15.39,1.87,0,4.42.17,6.8.59v-2.89c0-5.87-2.21-8.59-6.12-8.59s-6.21,2.47-7.14,7.91l-12.33-2.29c2.38-9.78,9.61-15.05,20.49-15.05,12.16,0,19.64,6.38,19.64,17.34v15.98ZM123.67,69.78c-1.62-.43-3.91-.68-6.04-.68-4.42,0-7.23,2.12-7.23,5.78,0,2.89,2.21,5.02,5.87,5.02,4.93,0,7.4-3.06,7.4-10.12Z"/>
    <path class="cls-1" d="M161.45,46.91c2.81-5.02,7.82-7.4,13.94-7.4s11.39,2.89,13.09,9.1c2.72-6.21,8.33-9.1,15.47-9.1,8.76,0,15.47,5.18,15.47,16.49v32.81h-14.45v-29.75c0-6.55-2.13-8.84-6.72-8.84-4.25,0-7.48,2.55-7.48,8.84v29.75h-14.45v-29.75c0-6.55-2.04-8.84-6.72-8.84-4.17,0-7.4,2.55-7.4,8.84v29.75h-14.45v-48.45h13.52v6.55h.17Z"/>
    <path class="cls-1" d="M271.1,40.37v48.45h-13.52v-4.25h-.17c-2.81,5.02-7.82,5.1-13.94,5.1-8.67,0-15.39-5.18-15.39-16.49v-32.81h14.45v29.75c0,6.54,2.04,8.84,6.72,8.84,4.17,0,7.4-2.55,7.4-8.84v-29.75h14.45Z"/>
    <path class="cls-1" d="M297.15,72.5c0,4.68,2.21,6.29,7.06,6.29,1.53,0,3.15-.34,4.08-.68v10.2c-2.55.85-6.29,1.36-9.52,1.36-9.18,0-15.64-4.76-15.64-14.88v-24.23h-6.97v-10.2h6.97v-10.46l14.03-.08v10.54h10.46v10.2h-10.46v21.93Z"/>
    <path class="cls-1" d="M376.41,61.57c-4.3,17.7-14.3,28.25-30.3,28.25-22.2,0-33.7-13.5-33.7-40,0-24.7,12.6-40,32.8-40,16.3,0,27.4,12.85,30.2,28.75l-19.1.15c-1-11-4.8-15.9-12.1-15.9-8.1,0-12.8,9.4-12.8,26.3s5.2,27.7,13.4,27.7c7,0,10.4-4.4,12-15.4l19.6.15Z"/>
    <path class="cls-1" d="M425.48,40.37v48.45h-13.52v-4.25h-.17c-2.81,5.02-7.82,5.1-13.94,5.1-8.67,0-15.39-5.18-15.39-16.49v-32.81h14.45v29.75c0,6.54,2.04,8.84,6.71,8.84,4.17,0,7.4-2.55,7.4-8.84v-29.75h14.45Z"/>
    <path class="cls-1" d="M451.53,72.5c0,4.68,2.21,6.29,7.06,6.29,1.53,0,3.15-.34,4.08-.68v10.2c-2.55.85-6.29,1.36-9.52,1.36-9.18,0-15.64-4.76-15.64-14.88v-24.23h-6.97v-10.2h6.97v-10.46l14.03-.08v10.54h10.46v10.2h-10.46v21.93Z"/>
  </g>
  <g>
    <g>
      <path class="cls-3" d="M48.53,49.44h38.19c-1.07,20.57-17.62,37.12-38.19,38.19v-38.19Z"/>
      <path class="cls-1" d="M84.42,51.57c-1.97,17.7-16.06,31.8-33.76,33.76v-33.76h33.76M88.91,47.32h0,0ZM88.91,47.32h-42.5v42.5c23.47,0,42.5-19.03,42.5-42.5h0Z"/>
    </g>
    <path class="cls-2" d="M81.72,30.44c-4.75-11.67-14.92-20.91-27.92-23.83C32.68,1.88,11.31,15.44,6.6,36.56c-4.53,20.33,7.89,40.87,27.77,46.63"/>
  </g>
</svg>